<?xml version="1.0" encoding="UTF-8"?>
<svg xmlns="http://www.w3.org/2000/svg" xmlns:xlink="http://www.w3.org/1999/xlink" width="25px" height="25px" viewBox="0 0 25 25" version="1.1">
<g id="surface1">
<path style=" stroke:none;fill-rule:nonzero;fill:rgb(0%,0%,0%);fill-opacity:1;" d="M 8.765625 9.660156 C 11.402344 9.660156 13.546875 7.515625 13.546875 4.878906 C 13.546875 2.242188 11.402344 0.09375 8.765625 0.09375 C 6.128906 0.09375 3.984375 2.242188 3.984375 4.878906 C 3.984375 7.515625 6.128906 9.660156 8.765625 9.660156 Z M 8.765625 2.382812 C 10.140625 2.382812 11.261719 3.5 11.261719 4.878906 C 11.261719 6.253906 10.140625 7.375 8.765625 7.375 C 7.390625 7.375 6.269531 6.253906 6.269531 4.878906 C 6.269531 3.5 7.390625 2.382812 8.765625 2.382812 Z M 8.765625 2.382812 "/>
<path style=" stroke:none;fill-rule:nonzero;fill:rgb(0%,0%,0%);fill-opacity:1;" d="M 17.425781 13.808594 C 16.976562 13.359375 16.253906 13.359375 15.808594 13.804688 C 15.359375 14.253906 15.359375 14.976562 15.808594 15.421875 L 17.285156 16.902344 L 15.808594 18.378906 C 15.359375 18.828125 15.359375 19.550781 15.808594 19.996094 C 16.03125 20.21875 16.324219 20.332031 16.617188 20.332031 C 16.910156 20.332031 17.199219 20.21875 17.425781 19.996094 L 19.710938 17.710938 C 19.925781 17.496094 20.046875 17.207031 20.046875 16.902344 C 20.046875 16.597656 19.925781 16.308594 19.710938 16.09375 Z M 17.425781 13.808594 "/>
<path style=" stroke:none;fill-rule:nonzero;fill:rgb(0%,0%,0%);fill-opacity:1;" d="M 16.996094 8.898438 C 14.367188 8.898438 12.03125 10.171875 10.570312 12.136719 C 9.980469 12.011719 9.375 11.949219 8.765625 11.949219 C 3.933594 11.949219 0 15.878906 0 20.710938 C 0 21.34375 0.511719 21.855469 1.144531 21.855469 L 10.714844 21.855469 C 12.183594 23.710938 14.453125 24.90625 16.996094 24.90625 C 21.410156 24.90625 25 21.316406 25 16.902344 C 25 12.488281 21.410156 8.898438 16.996094 8.898438 Z M 2.386719 19.570312 C 2.929688 16.539062 5.582031 14.234375 8.765625 14.234375 C 8.992188 14.234375 9.214844 14.246094 9.4375 14.269531 C 9.152344 15.09375 8.992188 15.980469 8.992188 16.902344 C 8.992188 17.835938 9.15625 18.734375 9.453125 19.570312 Z M 16.996094 22.617188 C 13.84375 22.617188 11.28125 20.054688 11.28125 16.902344 C 11.28125 13.75 13.84375 11.183594 16.996094 11.183594 C 20.148438 11.183594 22.714844 13.75 22.714844 16.902344 C 22.714844 20.054688 20.148438 22.617188 16.996094 22.617188 Z M 16.996094 22.617188 "/>
</g>
</svg>
